<svg width="24" height="24" viewBox="0 0 24 24" fill="none" xmlns="http://www.w3.org/2000/svg">
<path d="M3 7C3 4.79086 4.79086 3 7 3H17C19.2091 3 21 4.79086 21 7V17C21 19.2091 19.2091 21 17 21H7C4.79086 21 3 19.2091 3 17V7Z" fill="#4AC1E8"/>
<path fill-rule="evenodd" clip-rule="evenodd" d="M17.2071 8.29289C17.5976 8.68342 17.5976 9.31658 17.2071 9.70711L10.7071 16.2071C10.3166 16.5976 9.68342 16.5976 9.29289 16.2071L6.29289 13.2071C5.90237 12.8166 5.90237 12.1834 6.29289 11.7929C6.68342 11.4024 7.31658 11.4024 7.70711 11.7929L10 14.0858L15.7929 8.29289C16.1834 7.90237 16.8166 7.90237 17.2071 8.29289Z" fill="white"/>
</svg>
